<svg xmlns="http://www.w3.org/2000/svg" viewBox="0 0 1600 900" role="img" aria-label="Cloudsyva city intro banner">
  <defs>
    <linearGradient id="sky" x1="0" x2="0" y1="0" y2="1">
      <stop offset="0" stop-color="#72b7ff"/>
      <stop offset="0.5" stop-color="#355f9e"/>
      <stop offset="1" stop-color="#13263f"/>
    </linearGradient>
    <linearGradient id="sunset" x1="0" x2="1" y1="0" y2="0">
      <stop offset="0" stop-color="#ff9d6b" stop-opacity="0.9"/>
      <stop offset="1" stop-color="#ffd39f" stop-opacity="0.2"/>
    </linearGradient>
    <linearGradient id="buildings" x1="0" x2="0" y1="0" y2="1">
      <stop offset="0" stop-color="#3f6ea4"/>
      <stop offset="1" stop-color="#0f2036"/>
    </linearGradient>
  </defs>

  <rect width="1600" height="900" fill="url(#sky)"/>
  <rect y="250" width="1600" height="240" fill="url(#sunset)"/>

  <rect y="520" width="1600" height="380" fill="#0e2139"/>

  <g fill="url(#buildings)">
    <rect x="40" y="510" width="110" height="390"/>
    <rect x="170" y="430" width="130" height="470"/>
    <rect x="330" y="470" width="95" height="430"/>
    <rect x="450" y="370" width="125" height="530"/>
    <rect x="600" y="300" width="140" height="600"/>
    <rect x="780" y="460" width="110" height="440"/>
    <rect x="910" y="380" width="140" height="520"/>
    <rect x="1080" y="340" width="120" height="560"/>
    <rect x="1220" y="450" width="130" height="450"/>
    <rect x="1370" y="410" width="150" height="490"/>
  </g>

  <g fill="#18345a" opacity="0.75">
    <rect x="70" y="610" width="70" height="290"/>
    <rect x="270" y="560" width="40" height="340"/>
    <rect x="530" y="550" width="48" height="350"/>
    <rect x="860" y="590" width="36" height="310"/>
    <rect x="1170" y="520" width="40" height="380"/>
  </g>

  <g fill="#ffd27a" opacity="0.42">
    <rect x="620" y="120" width="36" height="190"/>
    <polygon points="638,30 653,120 623,120"/>
  </g>

  <text x="1120" y="760" fill="#ffffff" font-size="78" font-family="SF Pro Display, PingFang TC, sans-serif" font-weight="600">Cloudsyva Inc</text>
</svg>
